<svg width="13" height="9" viewBox="0 0 13 9" fill="none" xmlns="http://www.w3.org/2000/svg">
<path d="M0.710938 4.37751C0.710938 4.14172 0.909226 3.94685 1.16649 3.91601L1.23801 3.91175L11.7795 3.91175C12.0706 3.91175 12.3066 4.12028 12.3066 4.37751C12.3066 4.6133 12.1083 4.80817 11.8511 4.83901L11.7795 4.84326L1.23801 4.84326C0.946918 4.84326 0.710938 4.63474 0.710938 4.37751Z" fill="#3D3D3D"/>
<path d="M7.15591 0.966403C6.94963 0.784907 6.94892 0.490009 7.15431 0.307731C7.34103 0.142022 7.63381 0.126433 7.84048 0.261329L7.8997 0.306312L12.1515 4.04724C12.3395 4.21273 12.3566 4.47238 12.2028 4.655L12.1515 4.70731L7.89974 8.44886C7.69347 8.63037 7.35975 8.62976 7.15434 8.4475C6.9676 8.2818 6.9512 8.02302 7.10473 7.84097L7.15588 7.78882L11.0324 4.3771L7.15591 0.966403Z" fill="#3D3D3D"/>
</svg>
